<svg data-name="Layer 1" xmlns="http://www.w3.org/2000/svg" viewBox="0 0 62.4 78.49"><path d="M62.4 42c0-5.21-2.37-7.77-3.6-10a56.08 56.08 0 01-4.2-17.6C54.53 9.49 52.91 2 51.72 0c-.86 0-1.52 7.78-2.28 11.64-1.43 7-3.76 8.93-4.44 9-.76-2.81-4.11-7.36-13.67-7.73h-.26c-9.56.36-12.91 4.92-13.67 7.73-.67-.07-3-2-4.44-9C12.2 7.78 11.55 0 10.68 0 9.49 2 7.87 9.49 7.8 14.4A55.8 55.8 0 013.6 32C2.37 34.23 0 36.79 0 42c0 3.74 5.2 7.2 5.64 11.4.13 1.22 0 2.35.12 3.36 2 17.48 17.87 21.73 25.44 21.73s23.44-4.25 25.44-21.73c.15-1 0-2.14.12-3.36.44-4.2 5.64-7.65 5.64-11.4zM33.24 26.76a21.39 21.39 0 00-4.08 0c-1.73.34-5.76 1-5.76-1.08 0-1.07 6.72-2.29 7.8-2.29s7.8 1.22 7.8 2.29c0 2.07-4 1.42-5.76 1.08z" fill="#826550"/></svg>