<svg xmlns="http://www.w3.org/2000/svg" viewBox="0 0 141.67 139.6"><g data-name="Слой 2"><path d="M71.87 21.49c-.49-.63 1.13-22.3-1-21.49-2.16-.92-.52 20.93-1 21.46.66 0 1.33 0 2 .03zM45.8 28.46c.57-.34 1.15-.67 1.73-1-.74-.3-10.14-19.88-11.6-18.07-2.33.3 10.07 18.37 9.87 19.07zm-35.26 6.29c-1.88 1.41 17.82 11 18 11.64.32-.58.65-1.16 1-1.73-.75.11-18.64-12.2-19-9.91zm95.9-26.2c-1.35-2-11.51 18.79-12.17 19 .59.32 1.17.65 1.73 1-.13-.79 12.79-19.72 10.44-20zm25.38 27.15c4.26-6.7-19.72 9.74-19.62 9 .35.57.67 1.15 1 1.74zM22.53 69.8v-1C22 69.29-.9 67.63 0 69.8c-1 2.16 22 .52 22.53 1 .02-.34 0-.67 0-1zm118.17-1h-21.53v2h21.53a1 1 0 000-2zm-9.87 34.68l-17.68-10.27c-.32.58-.65 1.16-1 1.73l17.68 10.27a1 1 0 001-1.73zm-120.91.42c-4.27 6.7 19.71-9.74 19.61-9-.34-.56-.67-1.15-1-1.73zm86.01 7.23c-.57.35-1.15.68-1.73 1 .74.31 10.14 19.87 11.6 18.06 2.33-.29-10.02-18.35-9.87-19.06zm-61 18.55c-.4 8 12.27-18.26 12.53-17.59-.58-.33-1.16-.66-1.73-1zm34.94-11.57c.49.63-1.17 22.3 1 21.46 2.16.92.51-20.93 1-21.46-.67.03-1.34.03-2 0zm34.91-66.19a1.5 1.5 0 00-1.5-2.6L74.84 65.76a5.71 5.71 0 00-7.94 0c-1.17.08-21.89-14.6-22.4-11.28-2.72 2 20.5 12.89 20.89 13.87-2 9.25 13 9.26 11 0zm-29.4 14.46l-.06-.08zm.39.59zm-9.78 0zm.42-.62v.06zm4.46 6.17c-3.46 0-3.46-5.39 0-5.34s3.46 5.33 0 5.29z" fill="#fff" data-name="Слой 1"/></g></svg>