<?xml version="1.0" encoding="utf-8"?>
<!-- Generator: Adobe Illustrator 24.2.0, SVG Export Plug-In . SVG Version: 6.00 Build 0)  -->
<svg version="1.1" id="Layer_1" xmlns="http://www.w3.org/2000/svg" xmlns:xlink="http://www.w3.org/1999/xlink" x="0px" y="0px"
	 viewBox="0 0 369.5 153" style="enable-background:new 0 0 369.5 153;" xml:space="preserve">
<style type="text/css">
	.st0{fill:#FFFFFF;}
	.st1{fill:#636466;}
</style>
<rect x="1.7" y="69.2" transform="matrix(0.7073 -0.707 0.707 0.7073 -50.1281 25.4945)" class="st0" width="8.1" height="8.1"/>
<rect x="353.7" y="69.2" transform="matrix(0.7072 -0.707 0.707 0.7072 52.9508 274.3683)" class="st0" width="8.1" height="8.1"/>
<g>
	<polygon class="st1" points="46.8,73.5 48.9,73.5 48.9,65.2 52.2,65.2 52.2,63.1 46.8,63.1 	"/>
	<path class="st1" d="M61.7,75V62.3c0-1.8-1.1-3.3-2.6-4.1c0.3,0.6,0.5,1.3,0.5,2v12.7c0,1.4-0.6,2.6-1.7,3.5c0.9,1,1.7,2.1,1.7,3.7
		v14.1c0,2.5-2.1,4.6-4.6,4.6H41.5v2.1h15.6c2.5,0,4.6-2.1,4.6-4.6V82.2c0-1.6-0.7-2.7-1.7-3.7C61.1,77.7,61.7,76.4,61.7,75z"/>
	<polygon class="st1" points="46.8,91.3 48.9,91.3 48.9,83 52.2,83 52.2,80.9 46.8,80.9 	"/>
</g>
<g>
	<polygon class="st1" points="79.8,91.3 81.9,91.3 81.9,65.2 85.2,65.2 85.2,63.1 79.8,63.1 	"/>
	<path class="st1" d="M92.1,58.3c0.3,0.6,0.5,1.3,0.5,2v34c0,2.5-2.1,4.6-4.6,4.6H77c-0.7,0-1.4-0.2-2-0.5c0.7,1.5,2.3,2.6,4.1,2.6
		h11.1c2.5,0,4.6-2.1,4.6-4.6v-34C94.7,60.5,93.6,59,92.1,58.3z"/>
</g>
<g>
	<polygon class="st1" points="112.8,73.5 114.9,73.5 114.9,65.2 118.2,65.2 118.2,63.1 112.8,63.1 	"/>
	<path class="st1" d="M125.1,82.5c1.6-0.7,2.6-2.3,2.6-4.1V62.3c0-1.8-1.1-3.4-2.6-4.1c0.3,0.6,0.5,1.3,0.5,2v16.1
		c0,1.7-1,3.3-2.6,4.1l3.1,18.4h-5.7l0.4,2.1h7.4L125.1,82.5z"/>
	<polygon class="st1" points="115.7,80.9 112.8,80.9 112.8,98.8 107.5,98.8 107.5,100.9 114.9,100.9 114.9,83 116,83 	"/>
</g>
<g>
	<polygon class="st1" points="144.8,91.3 146.9,91.3 146.9,65.2 150.2,65.2 150.2,63.1 144.8,63.1 	"/>
	<path class="st1" d="M157.2,58.3c0.3,0.6,0.5,1.3,0.5,2v34c0,2.5-2.1,4.6-4.6,4.6H142c-0.7,0-1.4-0.2-2-0.5
		c0.7,1.5,2.3,2.6,4.1,2.6h11.1c2.5,0,4.6-2.1,4.6-4.6v-34C159.7,60.5,158.7,59,157.2,58.3z"/>
</g>
<g>
	<polygon class="st1" points="177.9,91.3 179.9,91.3 179.9,65.2 183.2,65.2 183.2,63.1 177.9,63.1 	"/>
	<path class="st1" d="M190.2,58.3c0.3,0.6,0.5,1.3,0.5,2v34c0,2.5-2.1,4.6-4.6,4.6h-13.6v2.1h15.6c2.5,0,4.6-2.1,4.6-4.6v-34
		C192.8,60.5,191.7,59,190.2,58.3z"/>
</g>
<polygon class="st1" points="211.2,57.8 211.2,98.8 205.9,98.8 205.9,100.9 213.3,100.9 213.3,57.8 "/>
<g>
	<polygon class="st1" points="244.1,57.8 244.1,98.8 238.2,98.8 238.8,100.9 246.2,100.9 246.2,57.8 	"/>
	<polygon class="st1" points="231.3,79.9 231.3,98.8 226,98.8 226,100.9 233.4,100.9 233.4,87.2 	"/>
</g>
<g>
	<path class="st1" d="M263.6,83h6.1v-2.1h-8.2c-0.7,0-1.4-0.2-2-0.5C260.2,81.9,261.8,83,263.6,83z"/>
	<polygon class="st1" points="266.4,85.7 264.3,86.2 264.3,91.3 266.4,91.3 	"/>
	<path class="st1" d="M276.7,58.3c0.3,0.6,0.5,1.3,0.5,2V69l-5.4,1.2v2.6l7.5-1.7v-8.7C279.2,60.5,278.2,59,276.7,58.3z"/>
	<path class="st1" d="M276.7,76.1c0.3,0.6,0.5,1.3,0.5,2v16.2c0,2.5-2.1,4.6-4.6,4.6h-11.1c-0.7,0-1.4-0.2-2-0.5
		c0.7,1.5,2.3,2.6,4.1,2.6h11.1c2.5,0,4.6-2.1,4.6-4.6V80.1C279.2,78.3,278.2,76.8,276.7,76.1z"/>
	<polygon class="st1" points="264.3,63.1 264.3,73.5 266.4,73.5 266.4,65.2 269.7,65.2 269.7,63.1 	"/>
</g>
<g>
	<polygon class="st1" points="298,80.9 297.3,80.9 297.3,98.8 292,98.8 292,100.9 299.4,100.9 299.4,85.4 	"/>
	<polygon class="st1" points="313.2,57.8 310.4,57.8 304.2,77.2 311.1,98.8 305.1,98.8 305.6,100.6 305.7,100.9 313.2,100.9 
		306.3,79.3 	"/>
</g>
<polygon class="st1" points="330.5,57.8 330.5,98.8 325.2,98.8 325.2,100.9 332.6,100.9 332.6,57.8 "/>
<rect x="361.5" y="79.6" transform="matrix(0.707 -0.7072 0.7072 0.707 49.7268 282.2779)" class="st1" width="8.1" height="2.9"/>
<rect x="9.5" y="79.7" transform="matrix(0.7071 -0.7071 0.7071 0.7071 -53.3956 33.363)" class="st1" width="8.1" height="2.9"/>
<g>
	<path class="st0" d="M55.6,69c0,1.4-0.6,2.6-1.7,3.5c0.9,1,1.7,2.1,1.7,3.7v14.1c0,2.5-2.1,4.6-4.6,4.6H35.4V51.7h15.6
		c2.5,0,4.6,2,4.6,4.6L55.6,69L55.6,69z M48.2,59.1h-5.4v10.4h5.4V59.1z M48.2,76.9h-5.4v10.5h5.4V76.9z"/>
	<path class="st0" d="M84.1,51.7c2.5,0,4.6,2,4.6,4.6v34c0,2.5-2.1,4.6-4.6,4.6H73c-2.5,0-4.6-2.1-4.6-4.6v-34c0-2.5,2-4.6,4.6-4.6
		H84.1z M81.2,59.1h-5.4v28.3h5.4V59.1z"/>
	<path class="st0" d="M114.7,94.8l-3-17.9h-2.8v17.9h-7.4V51.7h15.6c2.5,0,4.5,2,4.5,4.6v16.1c0,1.7-1,3.3-2.6,4.1l3.1,18.4H114.7z
		 M114.2,59.1h-5.4v10.4h5.4V59.1z"/>
	<path class="st0" d="M149.1,51.7c2.5,0,4.6,2,4.6,4.6v34c0,2.5-2.1,4.6-4.6,4.6h-11.1c-2.5,0-4.6-2.1-4.6-4.6v-34
		c0-2.5,2-4.6,4.6-4.6H149.1z M146.2,59.1h-5.4v28.3h5.4V59.1z"/>
	<path class="st0" d="M182.2,51.7c2.5,0,4.6,2,4.6,4.6v34c0,2.5-2.1,4.6-4.6,4.6h-15.6V51.7H182.2z M179.3,59.1h-5.4v28.3h5.4V59.1z
		"/>
	<path class="st0" d="M199.9,51.7h7.4v43.1h-7.4V51.7z"/>
	<path class="st0" d="M240.2,51.7v43.1h-7.4L227.4,76v18.8H220V51.7h7.3l5.4,17.7V51.7H240.2z"/>
	<path class="st0" d="M268.6,69.5c2.5,0,4.6,2,4.6,4.6v16.2c0,2.5-2.1,4.6-4.6,4.6h-11.1c-2.5,0-4.6-2.1-4.6-4.6v-8.9l7.4-1.7v7.7
		h5.4V76.9h-8.2c-2.5,0-4.6-2-4.6-4.6V56.3c0-2.5,2-4.6,4.6-4.6h11.1c2.5,0,4.6,2,4.6,4.6V65l-7.5,1.7v-7.6h-5.4v10.4H268.6z"/>
	<path class="st0" d="M300.2,73.2l6.9,21.6h-7.5l-0.1-0.2l-5.5-17.7h-0.7v17.9H286V51.7h7.4v17.8h0.6l5.7-17.8h7.5L300.2,73.2z"/>
	<path class="st0" d="M319.2,51.7h7.4v43.1h-7.4V51.7z"/>
</g>
</svg>
